<mxfile host="app.diagrams.net" agent="Mozilla/5.0 (Windows NT 10.0; Win64; x64) AppleWebKit/537.36 (KHTML, like Gecko) Chrome/136.0.0.0 Safari/537.36" version="27.0.3">
  <diagram name="Page-1" id="UXsrNf9ZP6Kqo0MjBglC">
    <mxGraphModel dx="1307" dy="619" grid="1" gridSize="10" guides="1" tooltips="1" connect="1" arrows="1" fold="1" page="1" pageScale="1" pageWidth="827" pageHeight="1169" math="0" shadow="0">
      <root>
        <mxCell id="0" />
        <mxCell id="1" parent="0" />
        <mxCell id="Fsdo4PKpDpBGeMkAoVHg-2" value="&lt;h3 style=&quot;font-weight: 500; font-size: 18.288px; line-height: 1.5; margin-right: 0px; margin-bottom: 13.716px; margin-left: 0px; color: rgb(64, 64, 64); font-family: DeepSeek-CJK-patch, Inter, system-ui, -apple-system, BlinkMacSystemFont, &amp;quot;Segoe UI&amp;quot;, Roboto, &amp;quot;Noto Sans&amp;quot;, Ubuntu, Cantarell, &amp;quot;Helvetica Neue&amp;quot;, Oxygen, &amp;quot;Open Sans&amp;quot;, sans-serif; text-align: start; text-wrap-mode: wrap; background-color: rgb(255, 255, 255); margin-top: 0px !important;&quot;&gt;&lt;br&gt;&lt;/h3&gt;" style="text;html=1;align=center;verticalAlign=middle;resizable=0;points=[];autosize=1;strokeColor=none;fillColor=none;" vertex="1" parent="1">
          <mxGeometry x="320" y="68" width="20" height="50" as="geometry" />
        </mxCell>
        <mxCell id="Fsdo4PKpDpBGeMkAoVHg-3" value="&lt;font style=&quot;font-size: 18px;&quot;&gt;Процесс тестирования автоматизированной системы&lt;/font&gt;" style="text;html=1;align=center;verticalAlign=middle;resizable=0;points=[];autosize=1;strokeColor=none;fillColor=none;" vertex="1" parent="1">
          <mxGeometry x="179" y="28" width="470" height="40" as="geometry" />
        </mxCell>
        <mxCell id="Fsdo4PKpDpBGeMkAoVHg-6" value="" style="edgeStyle=orthogonalEdgeStyle;rounded=0;orthogonalLoop=1;jettySize=auto;html=1;" edge="1" parent="1" source="Fsdo4PKpDpBGeMkAoVHg-4" target="Fsdo4PKpDpBGeMkAoVHg-5">
          <mxGeometry relative="1" as="geometry" />
        </mxCell>
        <mxCell id="Fsdo4PKpDpBGeMkAoVHg-4" value="Начало процесса тестирования" style="rounded=0;whiteSpace=wrap;html=1;fillColor=light-dark(#FFFFFF,#737373);" vertex="1" parent="1">
          <mxGeometry x="100" y="160" width="120" height="60" as="geometry" />
        </mxCell>
        <mxCell id="Fsdo4PKpDpBGeMkAoVHg-20" value="" style="edgeStyle=orthogonalEdgeStyle;rounded=0;orthogonalLoop=1;jettySize=auto;html=1;" edge="1" parent="1" source="Fsdo4PKpDpBGeMkAoVHg-5" target="Fsdo4PKpDpBGeMkAoVHg-19">
          <mxGeometry relative="1" as="geometry" />
        </mxCell>
        <mxCell id="Fsdo4PKpDpBGeMkAoVHg-5" value="Определение типов тестирования" style="whiteSpace=wrap;html=1;rounded=0;fillColor=light-dark(#FFFFFF,#737373);" vertex="1" parent="1">
          <mxGeometry x="100" y="240" width="120" height="60" as="geometry" />
        </mxCell>
        <mxCell id="Fsdo4PKpDpBGeMkAoVHg-12" style="edgeStyle=orthogonalEdgeStyle;rounded=0;orthogonalLoop=1;jettySize=auto;html=1;exitX=0.5;exitY=1;exitDx=0;exitDy=0;entryX=0.5;entryY=0;entryDx=0;entryDy=0;" edge="1" parent="1" source="Fsdo4PKpDpBGeMkAoVHg-7" target="Fsdo4PKpDpBGeMkAoVHg-8">
          <mxGeometry relative="1" as="geometry" />
        </mxCell>
        <mxCell id="Fsdo4PKpDpBGeMkAoVHg-7" value="Приемочные испытания" style="rounded=0;whiteSpace=wrap;html=1;" vertex="1" parent="1">
          <mxGeometry x="30" y="320" width="120" height="60" as="geometry" />
        </mxCell>
        <mxCell id="Fsdo4PKpDpBGeMkAoVHg-13" style="edgeStyle=orthogonalEdgeStyle;rounded=0;orthogonalLoop=1;jettySize=auto;html=1;exitX=1;exitY=0.5;exitDx=0;exitDy=0;entryX=0;entryY=0.5;entryDx=0;entryDy=0;" edge="1" parent="1" source="Fsdo4PKpDpBGeMkAoVHg-8" target="Fsdo4PKpDpBGeMkAoVHg-9">
          <mxGeometry relative="1" as="geometry" />
        </mxCell>
        <mxCell id="Fsdo4PKpDpBGeMkAoVHg-8" value="Функциональные тесты" style="whiteSpace=wrap;html=1;" vertex="1" parent="1">
          <mxGeometry x="30" y="400" width="120" height="60" as="geometry" />
        </mxCell>
        <mxCell id="Fsdo4PKpDpBGeMkAoVHg-15" style="edgeStyle=orthogonalEdgeStyle;rounded=0;orthogonalLoop=1;jettySize=auto;html=1;exitX=0.5;exitY=0;exitDx=0;exitDy=0;entryX=0.5;entryY=1;entryDx=0;entryDy=0;" edge="1" parent="1" source="Fsdo4PKpDpBGeMkAoVHg-9" target="Fsdo4PKpDpBGeMkAoVHg-10">
          <mxGeometry relative="1" as="geometry" />
        </mxCell>
        <mxCell id="Fsdo4PKpDpBGeMkAoVHg-9" value="Нагрузочные тесты" style="whiteSpace=wrap;html=1;" vertex="1" parent="1">
          <mxGeometry x="170" y="400" width="120" height="60" as="geometry" />
        </mxCell>
        <mxCell id="Fsdo4PKpDpBGeMkAoVHg-18" style="edgeStyle=orthogonalEdgeStyle;rounded=0;orthogonalLoop=1;jettySize=auto;html=1;exitX=0.5;exitY=0;exitDx=0;exitDy=0;entryX=0.768;entryY=0.98;entryDx=0;entryDy=0;entryPerimeter=0;" edge="1" parent="1" source="Fsdo4PKpDpBGeMkAoVHg-10" target="Fsdo4PKpDpBGeMkAoVHg-5">
          <mxGeometry relative="1" as="geometry">
            <mxPoint x="200" y="310" as="targetPoint" />
            <Array as="points">
              <mxPoint x="230" y="310" />
              <mxPoint x="192" y="310" />
            </Array>
          </mxGeometry>
        </mxCell>
        <mxCell id="Fsdo4PKpDpBGeMkAoVHg-10" value="Регрессионные тесты" style="whiteSpace=wrap;html=1;" vertex="1" parent="1">
          <mxGeometry x="170" y="320" width="120" height="60" as="geometry" />
        </mxCell>
        <mxCell id="Fsdo4PKpDpBGeMkAoVHg-17" style="edgeStyle=orthogonalEdgeStyle;rounded=0;orthogonalLoop=1;jettySize=auto;html=1;exitX=0.25;exitY=1;exitDx=0;exitDy=0;entryX=0.5;entryY=0;entryDx=0;entryDy=0;" edge="1" parent="1" source="Fsdo4PKpDpBGeMkAoVHg-5" target="Fsdo4PKpDpBGeMkAoVHg-7">
          <mxGeometry relative="1" as="geometry">
            <Array as="points">
              <mxPoint x="130" y="310" />
              <mxPoint x="90" y="310" />
            </Array>
          </mxGeometry>
        </mxCell>
        <mxCell id="Fsdo4PKpDpBGeMkAoVHg-27" style="edgeStyle=orthogonalEdgeStyle;rounded=0;orthogonalLoop=1;jettySize=auto;html=1;exitX=0.5;exitY=0;exitDx=0;exitDy=0;entryX=0.5;entryY=1;entryDx=0;entryDy=0;" edge="1" parent="1" source="Fsdo4PKpDpBGeMkAoVHg-19" target="Fsdo4PKpDpBGeMkAoVHg-21">
          <mxGeometry relative="1" as="geometry" />
        </mxCell>
        <mxCell id="Fsdo4PKpDpBGeMkAoVHg-35" style="edgeStyle=orthogonalEdgeStyle;rounded=0;orthogonalLoop=1;jettySize=auto;html=1;exitX=0.5;exitY=1;exitDx=0;exitDy=0;entryX=0.25;entryY=0;entryDx=0;entryDy=0;" edge="1" parent="1" source="Fsdo4PKpDpBGeMkAoVHg-19" target="Fsdo4PKpDpBGeMkAoVHg-34">
          <mxGeometry relative="1" as="geometry">
            <Array as="points">
              <mxPoint x="360" y="310" />
              <mxPoint x="330" y="310" />
            </Array>
          </mxGeometry>
        </mxCell>
        <mxCell id="Fsdo4PKpDpBGeMkAoVHg-19" value="Разработка структурированного плана тестирования" style="whiteSpace=wrap;html=1;rounded=0;fillColor=light-dark(#FFFFFF,#737373);" vertex="1" parent="1">
          <mxGeometry x="300" y="240" width="120" height="60" as="geometry" />
        </mxCell>
        <mxCell id="Fsdo4PKpDpBGeMkAoVHg-21" value="Цели тестирования" style="whiteSpace=wrap;html=1;" vertex="1" parent="1">
          <mxGeometry x="300" y="160" width="120" height="60" as="geometry" />
        </mxCell>
        <mxCell id="Fsdo4PKpDpBGeMkAoVHg-30" style="edgeStyle=orthogonalEdgeStyle;rounded=0;orthogonalLoop=1;jettySize=auto;html=1;exitX=1;exitY=0.5;exitDx=0;exitDy=0;entryX=0;entryY=0.5;entryDx=0;entryDy=0;" edge="1" parent="1" source="Fsdo4PKpDpBGeMkAoVHg-23" target="Fsdo4PKpDpBGeMkAoVHg-24">
          <mxGeometry relative="1" as="geometry" />
        </mxCell>
        <mxCell id="Fsdo4PKpDpBGeMkAoVHg-23" value="Входные данные" style="whiteSpace=wrap;html=1;" vertex="1" parent="1">
          <mxGeometry x="294" y="80" width="120" height="60" as="geometry" />
        </mxCell>
        <mxCell id="Fsdo4PKpDpBGeMkAoVHg-31" style="edgeStyle=orthogonalEdgeStyle;rounded=0;orthogonalLoop=1;jettySize=auto;html=1;exitX=0.5;exitY=1;exitDx=0;exitDy=0;entryX=0.5;entryY=0;entryDx=0;entryDy=0;" edge="1" parent="1" source="Fsdo4PKpDpBGeMkAoVHg-24" target="Fsdo4PKpDpBGeMkAoVHg-25">
          <mxGeometry relative="1" as="geometry" />
        </mxCell>
        <mxCell id="Fsdo4PKpDpBGeMkAoVHg-24" value="Тестовая среда" style="whiteSpace=wrap;html=1;" vertex="1" parent="1">
          <mxGeometry x="440" y="80" width="120" height="60" as="geometry" />
        </mxCell>
        <mxCell id="Fsdo4PKpDpBGeMkAoVHg-32" style="edgeStyle=orthogonalEdgeStyle;rounded=0;orthogonalLoop=1;jettySize=auto;html=1;exitX=0.5;exitY=1;exitDx=0;exitDy=0;entryX=0.5;entryY=0;entryDx=0;entryDy=0;" edge="1" parent="1" source="Fsdo4PKpDpBGeMkAoVHg-25" target="Fsdo4PKpDpBGeMkAoVHg-26">
          <mxGeometry relative="1" as="geometry" />
        </mxCell>
        <mxCell id="Fsdo4PKpDpBGeMkAoVHg-25" value="Ожидаемые результаты" style="whiteSpace=wrap;html=1;" vertex="1" parent="1">
          <mxGeometry x="440" y="160" width="120" height="60" as="geometry" />
        </mxCell>
        <mxCell id="Fsdo4PKpDpBGeMkAoVHg-33" style="edgeStyle=orthogonalEdgeStyle;rounded=0;orthogonalLoop=1;jettySize=auto;html=1;exitX=0;exitY=0.5;exitDx=0;exitDy=0;entryX=1;entryY=0.5;entryDx=0;entryDy=0;" edge="1" parent="1" source="Fsdo4PKpDpBGeMkAoVHg-26" target="Fsdo4PKpDpBGeMkAoVHg-19">
          <mxGeometry relative="1" as="geometry" />
        </mxCell>
        <mxCell id="Fsdo4PKpDpBGeMkAoVHg-26" value="Критерии успеха/провала" style="whiteSpace=wrap;html=1;" vertex="1" parent="1">
          <mxGeometry x="440" y="240" width="120" height="60" as="geometry" />
        </mxCell>
        <mxCell id="Fsdo4PKpDpBGeMkAoVHg-29" style="edgeStyle=orthogonalEdgeStyle;rounded=0;orthogonalLoop=1;jettySize=auto;html=1;exitX=0.5;exitY=0;exitDx=0;exitDy=0;entryX=0.566;entryY=1.006;entryDx=0;entryDy=0;entryPerimeter=0;" edge="1" parent="1" source="Fsdo4PKpDpBGeMkAoVHg-21" target="Fsdo4PKpDpBGeMkAoVHg-23">
          <mxGeometry relative="1" as="geometry" />
        </mxCell>
        <mxCell id="Fsdo4PKpDpBGeMkAoVHg-39" style="edgeStyle=orthogonalEdgeStyle;rounded=0;orthogonalLoop=1;jettySize=auto;html=1;exitX=1;exitY=0.5;exitDx=0;exitDy=0;entryX=0;entryY=0.5;entryDx=0;entryDy=0;" edge="1" parent="1" source="Fsdo4PKpDpBGeMkAoVHg-34" target="Fsdo4PKpDpBGeMkAoVHg-36">
          <mxGeometry relative="1" as="geometry" />
        </mxCell>
        <mxCell id="Fsdo4PKpDpBGeMkAoVHg-34" value="Создание тестовых сценариев для каждого вида испытаний" style="whiteSpace=wrap;html=1;fillColor=light-dark(#FFFFFF,#737373);" vertex="1" parent="1">
          <mxGeometry x="300" y="320" width="120" height="60" as="geometry" />
        </mxCell>
        <mxCell id="Fsdo4PKpDpBGeMkAoVHg-40" style="edgeStyle=orthogonalEdgeStyle;rounded=0;orthogonalLoop=1;jettySize=auto;html=1;exitX=1;exitY=0.5;exitDx=0;exitDy=0;entryX=0;entryY=0.5;entryDx=0;entryDy=0;" edge="1" parent="1" source="Fsdo4PKpDpBGeMkAoVHg-36" target="Fsdo4PKpDpBGeMkAoVHg-38">
          <mxGeometry relative="1" as="geometry" />
        </mxCell>
        <mxCell id="Fsdo4PKpDpBGeMkAoVHg-36" value="Согласование плана тестирования с заинтересованными сторонами" style="whiteSpace=wrap;html=1;fillColor=light-dark(#FFFFFF,#737373);" vertex="1" parent="1">
          <mxGeometry x="440" y="320" width="120" height="60" as="geometry" />
        </mxCell>
        <mxCell id="Fsdo4PKpDpBGeMkAoVHg-42" style="edgeStyle=orthogonalEdgeStyle;rounded=0;orthogonalLoop=1;jettySize=auto;html=1;exitX=0.25;exitY=1;exitDx=0;exitDy=0;entryX=0.25;entryY=0;entryDx=0;entryDy=0;" edge="1" parent="1" source="Fsdo4PKpDpBGeMkAoVHg-38" target="Fsdo4PKpDpBGeMkAoVHg-41">
          <mxGeometry relative="1" as="geometry">
            <Array as="points">
              <mxPoint x="610" y="390" />
              <mxPoint x="330" y="390" />
            </Array>
          </mxGeometry>
        </mxCell>
        <mxCell id="Fsdo4PKpDpBGeMkAoVHg-38" value="Подготовка тестовой среды (оборудование, ПО, тестовые данные)" style="whiteSpace=wrap;html=1;fillColor=light-dark(#FFFFFF,#737373);" vertex="1" parent="1">
          <mxGeometry x="580" y="320" width="120" height="60" as="geometry" />
        </mxCell>
        <mxCell id="Fsdo4PKpDpBGeMkAoVHg-44" style="edgeStyle=orthogonalEdgeStyle;rounded=0;orthogonalLoop=1;jettySize=auto;html=1;exitX=1;exitY=0.5;exitDx=0;exitDy=0;entryX=0;entryY=0.5;entryDx=0;entryDy=0;" edge="1" parent="1" source="Fsdo4PKpDpBGeMkAoVHg-41" target="Fsdo4PKpDpBGeMkAoVHg-43">
          <mxGeometry relative="1" as="geometry" />
        </mxCell>
        <mxCell id="Fsdo4PKpDpBGeMkAoVHg-41" value="&lt;div&gt;Выполнение тестов согласно сценариям&lt;/div&gt;" style="whiteSpace=wrap;html=1;fillColor=light-dark(#FFFFFF,#737373);" vertex="1" parent="1">
          <mxGeometry x="300" y="400" width="120" height="60" as="geometry" />
        </mxCell>
        <mxCell id="Fsdo4PKpDpBGeMkAoVHg-58" style="edgeStyle=orthogonalEdgeStyle;rounded=0;orthogonalLoop=1;jettySize=auto;html=1;exitX=0.5;exitY=1;exitDx=0;exitDy=0;entryX=0.5;entryY=0;entryDx=0;entryDy=0;" edge="1" parent="1" source="Fsdo4PKpDpBGeMkAoVHg-43" target="Fsdo4PKpDpBGeMkAoVHg-46">
          <mxGeometry relative="1" as="geometry" />
        </mxCell>
        <mxCell id="Fsdo4PKpDpBGeMkAoVHg-66" style="edgeStyle=orthogonalEdgeStyle;rounded=0;orthogonalLoop=1;jettySize=auto;html=1;exitX=1;exitY=0.5;exitDx=0;exitDy=0;entryX=0;entryY=0.5;entryDx=0;entryDy=0;" edge="1" parent="1" source="Fsdo4PKpDpBGeMkAoVHg-43" target="Fsdo4PKpDpBGeMkAoVHg-59">
          <mxGeometry relative="1" as="geometry" />
        </mxCell>
        <mxCell id="Fsdo4PKpDpBGeMkAoVHg-43" value="&lt;div&gt;Фиксация результатов в стандартизированных отчетах&lt;/div&gt;" style="whiteSpace=wrap;html=1;fillColor=light-dark(#FFFFFF,#737373);" vertex="1" parent="1">
          <mxGeometry x="440" y="400" width="120" height="60" as="geometry" />
        </mxCell>
        <mxCell id="Fsdo4PKpDpBGeMkAoVHg-55" style="edgeStyle=orthogonalEdgeStyle;rounded=0;orthogonalLoop=1;jettySize=auto;html=1;exitX=0.75;exitY=1;exitDx=0;exitDy=0;entryX=0.5;entryY=0;entryDx=0;entryDy=0;" edge="1" parent="1" source="Fsdo4PKpDpBGeMkAoVHg-46" target="Fsdo4PKpDpBGeMkAoVHg-47">
          <mxGeometry relative="1" as="geometry">
            <Array as="points">
              <mxPoint x="530" y="550" />
              <mxPoint x="570" y="550" />
            </Array>
          </mxGeometry>
        </mxCell>
        <mxCell id="Fsdo4PKpDpBGeMkAoVHg-46" value="При обнаружении дефектов:" style="whiteSpace=wrap;html=1;fillColor=light-dark(#FFFFFF,#737373);" vertex="1" parent="1">
          <mxGeometry x="440" y="480" width="120" height="60" as="geometry" />
        </mxCell>
        <mxCell id="Fsdo4PKpDpBGeMkAoVHg-52" value="" style="edgeStyle=orthogonalEdgeStyle;rounded=0;orthogonalLoop=1;jettySize=auto;html=1;" edge="1" parent="1" source="Fsdo4PKpDpBGeMkAoVHg-47" target="Fsdo4PKpDpBGeMkAoVHg-51">
          <mxGeometry relative="1" as="geometry" />
        </mxCell>
        <mxCell id="Fsdo4PKpDpBGeMkAoVHg-47" value="Анализ корневых причин" style="whiteSpace=wrap;html=1;" vertex="1" parent="1">
          <mxGeometry x="510" y="560" width="120" height="60" as="geometry" />
        </mxCell>
        <mxCell id="Fsdo4PKpDpBGeMkAoVHg-49" value="Повторное тестирование" style="whiteSpace=wrap;html=1;" vertex="1" parent="1">
          <mxGeometry x="340" y="570" width="120" height="60" as="geometry" />
        </mxCell>
        <mxCell id="Fsdo4PKpDpBGeMkAoVHg-53" style="edgeStyle=orthogonalEdgeStyle;rounded=0;orthogonalLoop=1;jettySize=auto;html=1;exitX=0;exitY=0.5;exitDx=0;exitDy=0;entryX=1;entryY=0.5;entryDx=0;entryDy=0;" edge="1" parent="1" source="Fsdo4PKpDpBGeMkAoVHg-51" target="Fsdo4PKpDpBGeMkAoVHg-49">
          <mxGeometry relative="1" as="geometry" />
        </mxCell>
        <mxCell id="Fsdo4PKpDpBGeMkAoVHg-51" value="Устранение ошибок" style="whiteSpace=wrap;html=1;" vertex="1" parent="1">
          <mxGeometry x="510" y="640" width="120" height="60" as="geometry" />
        </mxCell>
        <mxCell id="Fsdo4PKpDpBGeMkAoVHg-56" style="edgeStyle=orthogonalEdgeStyle;rounded=0;orthogonalLoop=1;jettySize=auto;html=1;exitX=0.5;exitY=0;exitDx=0;exitDy=0;entryX=0.317;entryY=1.045;entryDx=0;entryDy=0;entryPerimeter=0;" edge="1" parent="1" source="Fsdo4PKpDpBGeMkAoVHg-49" target="Fsdo4PKpDpBGeMkAoVHg-46">
          <mxGeometry relative="1" as="geometry">
            <Array as="points">
              <mxPoint x="400" y="560" />
              <mxPoint x="478" y="560" />
            </Array>
          </mxGeometry>
        </mxCell>
        <mxCell id="Fsdo4PKpDpBGeMkAoVHg-57" style="edgeStyle=orthogonalEdgeStyle;rounded=0;orthogonalLoop=1;jettySize=auto;html=1;exitX=0;exitY=0.5;exitDx=0;exitDy=0;entryX=0.458;entryY=1.032;entryDx=0;entryDy=0;entryPerimeter=0;" edge="1" parent="1" source="Fsdo4PKpDpBGeMkAoVHg-46" target="Fsdo4PKpDpBGeMkAoVHg-41">
          <mxGeometry relative="1" as="geometry" />
        </mxCell>
        <mxCell id="Fsdo4PKpDpBGeMkAoVHg-63" style="edgeStyle=orthogonalEdgeStyle;rounded=0;orthogonalLoop=1;jettySize=auto;html=1;exitX=0.5;exitY=1;exitDx=0;exitDy=0;entryX=0.5;entryY=0;entryDx=0;entryDy=0;" edge="1" parent="1" source="Fsdo4PKpDpBGeMkAoVHg-59" target="Fsdo4PKpDpBGeMkAoVHg-61">
          <mxGeometry relative="1" as="geometry" />
        </mxCell>
        <mxCell id="Fsdo4PKpDpBGeMkAoVHg-68" value="" style="edgeStyle=orthogonalEdgeStyle;rounded=0;orthogonalLoop=1;jettySize=auto;html=1;" edge="1" parent="1" source="Fsdo4PKpDpBGeMkAoVHg-59" target="Fsdo4PKpDpBGeMkAoVHg-67">
          <mxGeometry relative="1" as="geometry" />
        </mxCell>
        <mxCell id="Fsdo4PKpDpBGeMkAoVHg-59" value="&lt;div&gt;При успешном тестировании:&lt;/div&gt;" style="whiteSpace=wrap;html=1;fillColor=light-dark(#FFFFFF,#737373);" vertex="1" parent="1">
          <mxGeometry x="580" y="400" width="120" height="60" as="geometry" />
        </mxCell>
        <mxCell id="Fsdo4PKpDpBGeMkAoVHg-64" style="edgeStyle=orthogonalEdgeStyle;rounded=0;orthogonalLoop=1;jettySize=auto;html=1;exitX=1;exitY=0.5;exitDx=0;exitDy=0;entryX=0;entryY=0.5;entryDx=0;entryDy=0;" edge="1" parent="1" source="Fsdo4PKpDpBGeMkAoVHg-61" target="Fsdo4PKpDpBGeMkAoVHg-62">
          <mxGeometry relative="1" as="geometry" />
        </mxCell>
        <mxCell id="Fsdo4PKpDpBGeMkAoVHg-61" value="Формирование акта приемки" style="whiteSpace=wrap;html=1;" vertex="1" parent="1">
          <mxGeometry x="580" y="480" width="120" height="60" as="geometry" />
        </mxCell>
        <mxCell id="Fsdo4PKpDpBGeMkAoVHg-65" style="edgeStyle=orthogonalEdgeStyle;rounded=0;orthogonalLoop=1;jettySize=auto;html=1;exitX=0.5;exitY=0;exitDx=0;exitDy=0;entryX=0.75;entryY=1;entryDx=0;entryDy=0;" edge="1" parent="1" source="Fsdo4PKpDpBGeMkAoVHg-62" target="Fsdo4PKpDpBGeMkAoVHg-59">
          <mxGeometry relative="1" as="geometry">
            <Array as="points">
              <mxPoint x="780" y="470" />
              <mxPoint x="670" y="470" />
            </Array>
          </mxGeometry>
        </mxCell>
        <mxCell id="Fsdo4PKpDpBGeMkAoVHg-62" value="&lt;div&gt;Переход к вводу в эксплуатацию&lt;/div&gt;" style="whiteSpace=wrap;html=1;" vertex="1" parent="1">
          <mxGeometry x="720" y="480" width="120" height="60" as="geometry" />
        </mxCell>
        <mxCell id="Fsdo4PKpDpBGeMkAoVHg-67" value="Завершение процесса тестирования" style="whiteSpace=wrap;html=1;fillColor=light-dark(#FFFFFF,#737373);" vertex="1" parent="1">
          <mxGeometry x="720" y="400" width="120" height="60" as="geometry" />
        </mxCell>
        <mxCell id="Fsdo4PKpDpBGeMkAoVHg-70" value="&lt;b&gt;2&lt;span style=&quot;white-space-collapse: preserve;&quot;&gt;&#x9;&lt;/span&gt;Выбор видов тестирования&lt;/b&gt;" style="text;html=1;align=center;verticalAlign=middle;resizable=0;points=[];autosize=1;strokeColor=none;fillColor=none;" vertex="1" parent="1">
          <mxGeometry x="10" y="548" width="220" height="30" as="geometry" />
        </mxCell>
        <mxCell id="Fsdo4PKpDpBGeMkAoVHg-73" value="&lt;i&gt;ГОСТ 34.603-92, раздел 2&lt;/i&gt;" style="text;html=1;align=center;verticalAlign=middle;resizable=0;points=[];autosize=1;strokeColor=none;fillColor=none;" vertex="1" parent="1">
          <mxGeometry x="50" y="570" width="170" height="30" as="geometry" />
        </mxCell>
        <mxCell id="Fsdo4PKpDpBGeMkAoVHg-74" value="3    Планирование испытаний" style="text;whiteSpace=wrap;fontStyle=1" vertex="1" parent="1">
          <mxGeometry x="20" y="590" width="200" height="30" as="geometry" />
        </mxCell>
        <mxCell id="Fsdo4PKpDpBGeMkAoVHg-76" value="&lt;i&gt;ГОСТ 34.603-92, раздел 3&lt;/i&gt;" style="text;html=1;align=center;verticalAlign=middle;resizable=0;points=[];autosize=1;strokeColor=none;fillColor=none;" vertex="1" parent="1">
          <mxGeometry x="50" y="610" width="170" height="30" as="geometry" />
        </mxCell>
        <mxCell id="Fsdo4PKpDpBGeMkAoVHg-78" value="&lt;i&gt;ГОСТ 34.603-92, раздел 5&lt;/i&gt;" style="text;html=1;align=center;verticalAlign=middle;resizable=0;points=[];autosize=1;strokeColor=none;fillColor=none;" vertex="1" parent="1">
          <mxGeometry x="50" y="650" width="170" height="30" as="geometry" />
        </mxCell>
        <mxCell id="Fsdo4PKpDpBGeMkAoVHg-79" value="7&#x9;Проведение тестов и документирование" style="text;whiteSpace=wrap;fontStyle=1" vertex="1" parent="1">
          <mxGeometry x="20" y="630" width="270" height="20" as="geometry" />
        </mxCell>
        <mxCell id="Fsdo4PKpDpBGeMkAoVHg-81" value="9&#x9;Цикл исправлений и повторного тестирования" style="text;whiteSpace=wrap;fontStyle=1" vertex="1" parent="1">
          <mxGeometry x="20" y="670" width="320" height="20" as="geometry" />
        </mxCell>
        <mxCell id="Fsdo4PKpDpBGeMkAoVHg-82" value="10&#x9;Формирование итогового отчёта об испытаниях" style="text;whiteSpace=wrap;fontStyle=1" vertex="1" parent="1">
          <mxGeometry x="20" y="710" width="310" height="20" as="geometry" />
        </mxCell>
        <mxCell id="Fsdo4PKpDpBGeMkAoVHg-83" value="&lt;i&gt;ГОСТ 34.603-92, раздел 6&lt;/i&gt;" style="text;html=1;align=center;verticalAlign=middle;resizable=0;points=[];autosize=1;strokeColor=none;fillColor=none;" vertex="1" parent="1">
          <mxGeometry x="50" y="690" width="170" height="30" as="geometry" />
        </mxCell>
        <mxCell id="Fsdo4PKpDpBGeMkAoVHg-84" value="&lt;div&gt;&lt;i&gt;ГОСТ 34.603-92, раздел 7&lt;/i&gt;&lt;/div&gt;" style="text;html=1;align=center;verticalAlign=middle;resizable=0;points=[];autosize=1;strokeColor=none;fillColor=none;" vertex="1" parent="1">
          <mxGeometry x="50" y="730" width="170" height="30" as="geometry" />
        </mxCell>
        <mxCell id="Fsdo4PKpDpBGeMkAoVHg-85" value="2" style="text;html=1;align=center;verticalAlign=middle;resizable=0;points=[];autosize=1;strokeColor=none;fillColor=none;" vertex="1" parent="1">
          <mxGeometry x="75" y="280" width="30" height="30" as="geometry" />
        </mxCell>
        <mxCell id="Fsdo4PKpDpBGeMkAoVHg-86" value="3" style="text;html=1;align=center;verticalAlign=middle;resizable=0;points=[];autosize=1;strokeColor=none;fillColor=none;" vertex="1" parent="1">
          <mxGeometry x="280" y="240" width="30" height="30" as="geometry" />
        </mxCell>
        <mxCell id="Fsdo4PKpDpBGeMkAoVHg-87" value="7" style="text;html=1;align=center;verticalAlign=middle;resizable=0;points=[];autosize=1;strokeColor=none;fillColor=none;" vertex="1" parent="1">
          <mxGeometry x="300" y="460" width="30" height="30" as="geometry" />
        </mxCell>
        <mxCell id="Fsdo4PKpDpBGeMkAoVHg-88" value="9" style="text;html=1;align=center;verticalAlign=middle;resizable=0;points=[];autosize=1;strokeColor=none;fillColor=none;" vertex="1" parent="1">
          <mxGeometry x="645" y="378" width="30" height="30" as="geometry" />
        </mxCell>
        <mxCell id="Fsdo4PKpDpBGeMkAoVHg-89" value="10" style="text;html=1;align=center;verticalAlign=middle;resizable=0;points=[];autosize=1;strokeColor=none;fillColor=none;" vertex="1" parent="1">
          <mxGeometry x="780" y="378" width="40" height="30" as="geometry" />
        </mxCell>
      </root>
    </mxGraphModel>
  </diagram>
</mxfile>
